<?xml version="1.0" encoding="UTF-8"?>
<svg id="Layer_1" data-name="Layer 1" xmlns="http://www.w3.org/2000/svg" xmlns:xlink="http://www.w3.org/1999/xlink" viewBox="0 0 640 480">
  <defs>
    <style>
      .cls-1 {
        fill: url(#New_Gradient_Swatch_4);
        stroke-width: 0px;
      }
    </style>
    <linearGradient id="New_Gradient_Swatch_4" data-name="New Gradient Swatch 4" x1="102.07" y1="239.93" x2="542.24" y2="239.93" gradientUnits="userSpaceOnUse">
      <stop offset="0" stop-color="#0c0c0c"/>
      <stop offset="1" stop-color="#272727"/>
    </linearGradient>
  </defs>
  <path class="cls-1" d="M465.26,95.2c18.87-37.95,52.89-49.25,52.89-49.25-41.07-16.87-93.13-17.59-124.36,8.11-22.68-7.87-47.04-12.16-72.4-12.16-78.59,0-147.58,41.05-186.72,102.87-14.47,21.94-24.99,46.65-30.26,73.36-1.07,5.47-1.76,10.95-2.09,16.41-3.91,64.2,41.72,125.36,112.28,118.01,36.69-5,48.21-24.38,84.83-41.92,20.35-9.75,32.33-15.49,48.37-13.1,24.37,3.63,39.31,23.23,43.15,28.25,17.64,23.09,16.73,48.7,16.19,56.11,19.58-44.06-5.39-93-48.04-106.26l18.2-10.87c-65.18-6.73-87.26,38.72-136.95,60.99-10.29,2.94-23.48-4.5-31.39-6.31.14-4.48.22-6.69-3.03-9.89l34.41-51.92v-31.23l31.11-31.57-21.38-34.57c14.73,2.12,28.88,7.4,41.22,15.76,0,0,8.24,5.56,8.24,5.56l-38.62-43.31c48.38-16.87,81.38,15.58,81.38,15.58,17.61-7.93,61.6-4.7,76.29,12.47-8.27,3.36-16.54,6.72-24.82,10.08,16.63,2.5,52.35,10.19,86.87,37.97-11.23-2.44-30.55,5.75-30.55,5.75,0,0,9.58,3.12,25.22,23.13,15.59,19.98,22.72,44.08,22.72,44.08-12.35-8.43-24.07-8.46-24.25-8.46,2.15,3.24,4.07,6.51,5.75,9.75,21.24,41.43,5.54,82.59,5.54,82.59-.41-2.69-1.32-6.72-3.58-11.13-1.97-3.86-8.86-11.06-8.86-11.06,2.89,19.25-4.31,66.06-27.82,96.94,58.42-39.43,96.95-106.06,97.44-181.73,0-.49.02-.98.02-1.47,0-67.02-29.86-127.06-76.99-167.56ZM194.22,232.96c-13.13,26.05-34.42,41.81-47.55,35.19-30.43-17.9,15.1-108.16,47.56-94.34,13.13,6.62,13.13,33.1,0,59.16Z"/>
</svg>